<?xml version="1.0" encoding="utf-8"?>
<svg version="1.1" viewBox="0 0 100 125" x="0px" y="0px" xmlns="http://www.w3.org/2000/svg">
  <path d="m14.105 3.7188c-6.7772 0.0013938-12.296 5.5236-12.295 12.301 9.291e-4 6.7772 5.5217 12.297 12.299 12.297 6.6829-4.58e-4 12.119-5.3758 12.27-12.023a1.2501 1.2501 0 0 0 0.027344-0.27539 1.2501 1.2501 0 0 0 0-0.003906 1.2501 1.2501 0 0 0 0-0.001953 1.2501 1.2501 0 0 0-0.027344-0.27148c-0.1514-6.6485-5.5899-12.023-12.273-12.021zm23.105 0.029297c-2.018 0-3.7246 1.6189-3.7246 3.6367v17.264c0 2.0178 1.7066 3.6367 3.7246 3.6367h56.742c2.018 0 3.7246-1.6189 3.7246-3.6367v-17.264c0-2.0178-1.7066-3.6367-3.7246-3.6367h-56.742zm-23.104 2.4707c5.4261-0.00112 9.7973 4.3688 9.7988 9.7949a1.2501 1.2501 0 0 0 0 0.001953 1.2501 1.2501 0 0 0 0 0.001953c0 5.4261-4.3707 9.7985-9.7969 9.7988-5.4262 2.78e-4 -9.7981-4.3727-9.7988-9.7988-7.44e-4 -5.4261 4.3707-9.7977 9.7969-9.7988zm23.104 0.029297h56.742c0.72416 0 1.2246 0.51033 1.2246 1.1367v17.264c0 0.62639-0.50045 1.1367-1.2246 1.1367h-56.742c-0.72416 0-1.2246-0.51033-1.2246-1.1367v-17.264c0-0.62639 0.50045-1.1367 1.2246-1.1367zm-23.105 31.471c-6.7772 0.0014-12.296 5.5236-12.295 12.301 9.291e-4 6.7772 5.5217 12.297 12.299 12.297 6.6829-4.58e-4 12.119-5.3758 12.27-12.023a1.2501 1.2501 0 0 0 0.027344-0.27539 1.2501 1.2501 0 0 0 0-0.003906 1.2501 1.2501 0 0 0 0-0.001953 1.2501 1.2501 0 0 0-0.027344-0.27148c-0.1514-6.6485-5.5899-12.023-12.273-12.021zm23.105 0.029297c-2.018 0-3.7246 1.6189-3.7246 3.6367v17.264c0 2.0178 1.7066 3.6367 3.7246 3.6367h56.742c2.018 0 3.7246-1.6189 3.7246-3.6367v-17.264c0-2.0178-1.7066-3.6367-3.7246-3.6367h-56.742zm-23.104 2.4707c5.4261-0.0011 9.7973 4.3688 9.7988 9.7949a1.2501 1.2501 0 0 0 0 0.001953 1.2501 1.2501 0 0 0 0 0.001953c0 5.4261-4.3707 9.7985-9.7969 9.7988-5.4261 3.72e-4 -9.7981-4.3727-9.7988-9.7988-7.44e-4 -5.4261 4.3707-9.7977 9.7969-9.7988zm23.104 0.029297h56.742c0.72416 0 1.2246 0.51033 1.2246 1.1367v17.264c0 0.62639-0.50045 1.1367-1.2246 1.1367h-56.742c-0.72416 0-1.2246-0.51033-1.2246-1.1367v-17.264c0-0.62639 0.50045-1.1367 1.2246-1.1367zm-23.105 31.471c-6.7772 0.0014-12.296 5.5236-12.295 12.301 9.291e-4 6.7772 5.5217 12.297 12.299 12.297 6.6829-4.58e-4 12.119-5.3758 12.27-12.023a1.2501 1.2501 0 0 0 0.027344-0.27539 1.2501 1.2501 0 0 0 0-0.003906 1.2501 1.2501 0 0 0 0-0.001953 1.2501 1.2501 0 0 0-0.027344-0.27148c-0.1514-6.6485-5.5899-12.023-12.273-12.021zm23.105 0.029297c-2.018 0-3.7246 1.6189-3.7246 3.6367v17.264c0 2.0178 1.7066 3.6367 3.7246 3.6367h56.742c2.018 0 3.7246-1.6189 3.7246-3.6367v-17.264c0-2.0178-1.7066-3.6367-3.7246-3.6367h-56.742zm-23.104 2.4707c5.4261-0.0011 9.7973 4.3688 9.7988 9.7949a1.2501 1.2501 0 0 0 0 0.001953 1.2501 1.2501 0 0 0 0 0.001953c0 5.4261-4.3707 9.7985-9.7969 9.7988-5.4261 3.72e-4 -9.7981-4.3727-9.7988-9.7988-7.44e-4 -5.4261 4.3707-9.7977 9.7969-9.7988zm23.104 0.029297h56.742c0.72416 0 1.2246 0.51033 1.2246 1.1367v17.264c0 0.62639-0.50045 1.1367-1.2246 1.1367h-56.742c-0.72416 0-1.2246-0.51033-1.2246-1.1367v-17.264c0-0.62639 0.50045-1.1367 1.2246-1.1367z" color="#000000" color-rendering="auto" dominant-baseline="auto" image-rendering="auto" shape-rendering="auto" solid-color="#000000" style="font-feature-settings:normal;font-variant-alternates:normal;font-variant-caps:normal;font-variant-ligatures:normal;font-variant-numeric:normal;font-variant-position:normal;isolation:auto;mix-blend-mode:normal;shape-padding:0;text-decoration-color:#000000;text-decoration-line:none;text-decoration-style:solid;text-indent:0;text-orientation:mixed;text-transform:none;white-space:normal;"/>
</svg>