<?xml version="1.0" encoding="utf-8"?>
<svg version="1.1" x="0px" y="0px" viewBox="0 0 64 80" style="enable-background:new 0 0 64 64;" xmlns="http://www.w3.org/2000/svg">
  <g>
    <polygon points="15,23 7,23 7,14 10,14 10,12 5,12 5,25 17,25 17,19 15,19  " style=""/>
    <polygon points="11,17.586 9.707,16.293 8.293,17.707 11,20.414 18.707,12.707 17.293,11.293  " style=""/>
    <path d="M42,49c-2.757,0-5,2.243-5,5s2.243,5,5,5s5-2.243,5-5S44.757,49,42,49z M42,57c-1.654,0-3-1.346-3-3s1.346-3,3-3   s3,1.346,3,3S43.654,57,42,57z" style=""/>
    <path d="M60.164,7.013L49.239,4.828l-4.522,20.096L23,20.58V1H7.586L1,7.586V29h11.02L9.182,42.057   c-1.244,0.228-2.266,1.159-2.583,2.423l-0.507,2.028C6.031,46.753,6,47.005,6,47.258c0,1.492,1.064,2.771,2.531,3.043l24.512,4.539   C33.468,59.41,37.321,63,42,63c4.962,0,9-4.037,9-9c0-1.452-0.354-2.82-0.967-4.035l5.021-22.094l-3.203-6.356l1.951-8.535   l4.756,0.951C58.786,13.977,59.019,14,59.25,14h0.222C61.417,14,63,12.417,63,10.472C63,8.796,61.807,7.342,60.164,7.013z    M27.6,23.54l3.033,0.607l-1.341,4.692l-3.033-0.607L27.6,23.54z M32.6,24.54l3.033,0.607l-1.341,4.692l-3.033-0.607L32.6,24.54z    M7,4.414V7H4.414L7,4.414z M3,9h6V3h12v24H3V9z M23,29v-6.38l2.633,0.527l-1.892,6.622l11.967,2.394L37.6,25.54l6.678,1.336   l-4.121,18.316c-1.524,0.319-2.903,1.028-4.039,2.012l-24.925-4.985L14.067,29H23z M8,47.258c0-0.09,0.011-0.179,0.033-0.266   l0.507-2.027c0.163-0.649,0.837-1.07,1.485-0.94l24.543,4.909c-0.776,1.134-1.292,2.456-1.48,3.881l-24.193-4.48   C8.376,48.238,8,47.785,8,47.258z M42,61c-3.86,0-7-3.141-7-7s3.14-7,7-7s7,3.141,7,7S45.86,61,42,61z M46.24,46.065l1.311-5.735   l2.508,0.501l-1.577,6.94C47.829,47.093,47.075,46.514,46.24,46.065z M49.649,31.149l2.496,0.499l-1.644,7.232l-2.505-0.501   L49.649,31.149z M52.945,28.129l-0.357,1.569l-2.494-0.499l1.058-4.627L52.945,28.129z M44.357,45.324   c-0.676-0.184-1.381-0.291-2.11-0.311l7.394-32.865l2.198,0.44L44.357,45.324z M59.472,12H59.25c-0.101,0-0.201-0.01-0.3-0.03   l-8.87-1.774l0.68-3.024l9.01,1.802C60.483,9.117,61,9.747,61,10.472C61,11.314,60.314,12,59.472,12z" style=""/>
  </g>
</svg>