<?xml version="1.0" encoding="utf-8"?>
<svg version="1.1" x="0px" y="0px" viewBox="0 0 73.2 92.25" style="enable-background:new 0 0 73.2 73.8;" xmlns="http://www.w3.org/2000/svg">
  <path d="M46.3,48.3l-1.9-1.9v-5.5c2-1.4,3.7-3.2,4.8-5.3c1.6-0.3,2.7-0.8,3.5-1.7c0.5-0.5,0.9-1.1,1.1-1.8c1.2,0,2.6-0.4,3.5-1.4  c0.9-1,0.9-2.4,0.9-5c0-2.6,0-4.2-1-5.3c-0.8-0.9-1.9-1.3-2.9-1.4C52.3,10.7,44.5,4.7,36,5c-8.2,0.3-15.1,6-17.1,14  c-1,0.1-2.1,0.5-2.9,1.4c-1,1.1-1,2.7-1,5.3c0,2.5,0,4,0.9,5c1,1.2,2.5,1.5,3.8,1.4c0.8,0,1.5-0.1,1.8-0.2l-0.4-2  c-0.3,0.1-2.7,0.5-3.7-0.6C17,28.9,17,27.6,17,25.7c0-2.2,0-3.4,0.5-3.9c0.8-0.9,2.5-0.9,3.1-0.8C21.6,13.5,28.7,7.3,36,7  c7.8-0.3,15,5.7,16.6,14c0.8,0,2.3-0.1,3.1,0.8c0.4,0.5,0.5,1.7,0.5,3.9c0,1.9,0,3.2-0.4,3.7c-1,1.1-3.2,0.7-3.7,0.6  c0,1.5-0.7,2.3-0.9,2.5c-0.3,0.3-0.7,0.5-1.2,0.7c0.4-1.4,0.7-2.8,0.7-4.3v-4.7c0-7.8-6.4-14.2-14.2-14.2s-14.2,6.4-14.1,14.2V29  c0,4.9,2.4,9.3,6.4,11.9v5.5L27,48.3C13.8,51,5,58.9,5,67.9c0,0.6,0.4,1,1,1h61.2c0.6,0,1-0.4,1-1C68.2,58.8,59.4,51,46.3,48.3z   M44.7,49.6l-4.2,4.2l-1.6-1.6l4.2-4.2L44.7,49.6z M24.4,29v-4.7c0-6.7,5.5-12.2,12.2-12.2S48.8,17.6,49,24.3V29  c0,1.7-0.3,3.3-1,4.8c-0.8,0.1-1.8,0.2-2.9,0.3c-1.9,0.1-3.8,0.2-5.8,0.2c-0.5-0.8-1.3-1.3-2.3-1.3h-0.9c-1.5,0-2.7,1.2-2.7,2.7  s1.2,2.7,2.7,2.7h0.9c1.3,0,2.4-0.9,2.6-2.1c1.9,0,3.7-0.1,5.5-0.2c0.6,0,1.1-0.1,1.6-0.1c-1,1.4-2.3,2.7-3.8,3.6  c-0.3,0.2-0.5,0.5-0.5,0.9V46l-5.6,5.6c-0.1,0.1-0.2,0.2-0.2,0.3c0-0.1-0.1-0.2-0.2-0.3L30.9,46v-5.6c0-0.4-0.2-0.7-0.5-0.9  C26.6,37.2,24.4,33.3,24.4,29z M37.8,35.6c0,0.4-0.3,0.7-0.7,0.7h-0.9c-0.4,0-0.7-0.3-0.7-0.7c0-0.4,0.3-0.7,0.7-0.7h0.9  C37.4,34.9,37.8,35.2,37.8,35.6z M30.1,48l4.2,4.2l-1.6,1.6l-4.2-4.2L30.1,48z M37.1,66.9v-2.3h-1v2.3H7c0.7-7.3,8.4-13.9,19.4-16.4  l5.5,5.5c0.2,0.2,0.4,0.3,0.7,0.3s0.5-0.1,0.7-0.3l2.8-2.8v2.3h1v-2.3l2.8,2.8c0.2,0.2,0.4,0.3,0.7,0.3s0.5-0.1,0.7-0.3l5.5-5.5  c11,2.5,18.8,9.1,19.4,16.4H37.1z M36.1,58.6h1v3h-1V58.6z" style=""/>
</svg>