<svg xmlns="http://www.w3.org/2000/svg" xmlns:xlink="http://www.w3.org/1999/xlink" xml:space="preserve" version="1.1" style="shape-rendering:geometricPrecision;text-rendering:geometricPrecision;image-rendering:optimizeQuality;" viewBox="0 0 2540 3175" x="0px" y="0px" fill-rule="evenodd" clip-rule="evenodd"><defs><style type="text/css">
   
    .fil0 {fill:black;fill-rule:nonzero}
   
  </style></defs><g><path class="fil0" d="M1842 391l0 83 -1160 0 0 -83 1160 0zm-1211 -101c-28,0 -51,23 -51,51l0 184c0,28 23,51 51,51l1262 0c28,0 51,-23 51,-51l0 -184c0,-28 -23,-51 -51,-51l-1262 0z"/><path class="fil0" d="M622 1334c-5,-5 -10,-10 -14,-16l170 0c-33,50 -111,57 -156,16zm653 18c-32,0 -60,-12 -78,-34l155 0c-18,22 -46,34 -77,34zm-290 9c-33,0 -64,-17 -80,-43l159 0c-16,26 -46,43 -79,43zm513 -34c-3,-3 -6,-6 -8,-9l148 0c-34,42 -101,46 -140,9zm289 8c-5,-5 -10,-11 -14,-17l164 0c-31,50 -107,57 -150,17zm-422 -118l-180 0 62 -532 62 0 56 532zm275 0l-173 0 -57 -532 84 0 146 532zm155 -532l46 0 351 532 -162 0 -235 -532zm124 532l-174 0 -146 -532 85 0 235 532zm-866 -532l91 0 -61 532 -173 0 143 -532zm-204 0l99 0 -143 532 -181 0 225 -532zm-334 532l-173 0 312 -532 85 0 -224 532zm-153 125l-30 -24 148 0c-28,35 -76,44 -118,24zm1353 807l0 -582 287 0 0 582 -287 0zm444 0l-55 0 0 -633c0,-28 -23,-50 -51,-50l-389 0c-28,0 -51,22 -51,50l0 633 -1220 0 0 -695c58,3 111,-18 150,-55 79,84 218,84 298,2 79,83 215,81 291,-5 83,79 211,77 289,-3 81,81 203,82 284,2 75,85 208,92 295,6 42,42 96,66 159,61l0 687zm102 -725c65,-49 92,-146 67,-184l-415 -630c-9,-16 -25,-27 -45,-27l-1243 0 0 0c-17,0 -34,9 -44,25l-369 630c-21,32 -2,51 3,63 9,18 10,70 77,117l0 781c0,28 23,51 51,51l1867 0c28,0 51,-23 51,-51l0 -775zm-76 -73c-43,21 -97,7 -122,-33l160 0 -38 33z"/><path class="fil0" d="M1281 1590l0 337 -681 0 0 -337 681 0zm-732 -102c-28,0 -51,23 -51,51l0 439c0,28 23,51 51,51l783 0c28,0 51,-23 51,-51l0 -439c0,-28 -23,-51 -51,-51l-783 0z"/><path class="fil0" d="M1876 1706l0 74 -38 0 0 -74 38 0zm-89 -102c-28,0 -51,23 -51,51 0,257 -31,226 191,226 28,0 51,-23 51,-51 0,-257 31,-226 -191,-226z"/></g><text x="0" y="2555" fill="#000000" font-size="5px" font-weight="bold" font-family="'Helvetica Neue', Helvetica, Arial-Unicode, Arial, Sans-serif">Created by revo250</text><text x="0" y="2560" fill="#000000" font-size="5px" font-weight="bold" font-family="'Helvetica Neue', Helvetica, Arial-Unicode, Arial, Sans-serif">from the Noun Project</text></svg>