<?xml version="1.0" encoding="utf-8"?>
<svg version="1.1" x="0px" y="0px" viewBox="0 0 37 46.25" enable-background="new 0 0 37 37" xmlns="http://www.w3.org/2000/svg">
  <path d="M13.369,12.588c0.297,0,0.539-0.242,0.539-0.54s-0.242-0.54-0.539-0.54h-9.9c-0.299,0-0.541,0.242-0.541,0.54  s0.242,0.54,0.541,0.54H13.369z" style=""/>
  <path d="M11.438,14.723c0-0.299-0.24-0.541-0.539-0.541h-9.9c-0.299,0-0.539,0.242-0.539,0.541c0,0.298,0.24,0.539,0.539,0.539h9.9  C11.197,15.262,11.438,15.021,11.438,14.723z" style=""/>
  <path d="M11.986,17.396c0-0.299-0.242-0.541-0.541-0.541H1.547c-0.299,0-0.541,0.242-0.541,0.541s0.242,0.539,0.541,0.539h9.898  C11.744,17.936,11.986,17.695,11.986,17.396z" style=""/>
  <path d="M12.543,22.114c-1.164,0-2.109,0.946-2.109,2.109s0.945,2.109,2.109,2.109c1.162,0,2.109-0.946,2.109-2.109  S13.705,22.114,12.543,22.114z M12.543,25.253c-0.568,0-1.029-0.462-1.029-1.029s0.461-1.029,1.029-1.029s1.029,0.462,1.029,1.029  S13.111,25.253,12.543,25.253z"/>
  <path d="M27.855,22.114c-1.164,0-2.111,0.946-2.111,2.109s0.947,2.109,2.111,2.109c1.162,0,2.109-0.946,2.109-2.109  S29.018,22.114,27.855,22.114z M27.855,25.253c-0.568,0-1.031-0.462-1.031-1.029s0.463-1.029,1.031-1.029  c0.566,0,1.029,0.462,1.029,1.029S28.422,25.253,27.855,25.253z"/>
  <path d="M29.301,13.895h-3.084c-0.299,0-0.541,0.242-0.541,0.54v3.737c0,0.299,0.242,0.54,0.541,0.54h5.646  c0.174,0,0.338-0.085,0.439-0.226c0.102-0.143,0.127-0.324,0.07-0.489C32.043,17.035,30.848,13.895,29.301,13.895z M26.756,17.632  v-2.657h2.545c0.404,0,1.186,1.195,1.783,2.657H26.756z"/>
  <path d="M35.418,21.369v-2.014c0-0.135-0.025-0.268-0.08-0.4l-1.904-4.557c-0.01-0.023-0.021-0.047-0.035-0.069  c-0.91-1.515-1.854-2.874-3.387-2.874H26.02c-0.365,0-0.729,0.057-1.082,0.169v-0.753c0-1.123-0.914-2.037-2.037-2.037H1.816  c-0.299,0-0.541,0.241-0.541,0.539c0,0.299,0.242,0.541,0.541,0.541H22.9c0.527,0,0.957,0.43,0.957,0.957v12.938h-7.393  c-0.209-1.98-1.889-3.529-3.922-3.529c-2.035,0-3.713,1.549-3.922,3.529H6.777c-0.529,0-0.957-0.43-0.957-0.958v-3.835H4.74v3.835  c0,1.124,0.914,2.038,2.037,2.038H8.66c0.316,1.857,1.934,3.277,3.883,3.277c1.947,0,3.564-1.42,3.883-3.277h7.545  c0.318,1.857,1.936,3.277,3.885,3.277c1.947,0,3.564-1.42,3.881-3.277h3.268c0.848,0,1.537-0.69,1.537-1.538v-0.5  C36.541,22.146,36.066,21.552,35.418,21.369z M12.543,27.086c-1.58,0-2.865-1.283-2.865-2.862s1.285-2.864,2.865-2.864  c1.578,0,2.863,1.285,2.863,2.864S14.121,27.086,12.543,27.086z M27.855,27.086c-1.58,0-2.865-1.283-2.865-2.862  s1.285-2.864,2.865-2.864c1.578,0,2.861,1.285,2.861,2.864S29.434,27.086,27.855,27.086z M35.461,23.351  c0,0.253-0.205,0.458-0.457,0.458h-3.229c-0.209-1.98-1.887-3.529-3.92-3.529c-1.158,0-2.197,0.504-2.918,1.3v-8.798  c0.355-0.16,0.719-0.246,1.082-0.246h3.992c0.961,0,1.703,1.092,2.441,2.316l1.885,4.504v2.497c0,0.299,0.242,0.54,0.541,0.54h0.125  c0.252,0,0.457,0.205,0.457,0.458V23.351z" style=""/>
</svg>