<?xml version="1.0" encoding="utf-8"?>
<svg version="1.1" x="0px" y="0px" viewBox="0 0 64 80" style="enable-background:new 0 0 64 64;" xmlns="http://www.w3.org/2000/svg">
  <g>
    <path d="M29,46c0-6.065-4.935-11-11-11S7,39.935,7,46s4.935,11,11,11S29,52.065,29,46z M18,55c-4.962,0-9-4.037-9-9s4.038-9,9-9   s9,4.037,9,9S22.962,55,18,55z" style=""/>
    <path d="M18,43c0.551,0,1,0.448,1,1h2c0-1.302-0.839-2.402-2-2.816V39h-2v2h-2v3c0,1.654,1.346,3,3,3c0.551,0,1,0.448,1,1v1h-1   c-0.551,0-1-0.448-1-1h-2c0,1.302,0.839,2.402,2,2.816V53h2v-2h2v-3c0-1.654-1.346-3-3-3c-0.551,0-1-0.448-1-1v-1H18z" style=""/>
    <rect x="11" y="45" width="2" height="2" style=""/>
    <rect x="23" y="45" width="2" height="2" style=""/>
    <path d="M61,43c0-6.199-4.053-11.462-9.646-13.298C53.545,28.274,55,25.805,55,23c0-4.411-3.589-8-8-8s-8,3.589-8,8   c0,2.804,1.453,5.271,3.642,6.7c-2.065,0.674-3.961,1.82-5.542,3.401c-2.32,2.32-3.724,5.311-4.034,8.534l-0.809-0.27   c-0.244-0.755-0.544-1.482-0.896-2.174l1.291-2.581L32,35.958V29c0-6.199-4.053-11.462-9.646-13.298C24.545,14.274,26,11.805,26,9   c0-4.411-3.589-8-8-8s-8,3.589-8,8c0,2.805,1.455,5.274,3.646,6.702C8.053,17.538,4,22.801,4,29v6.958L3.348,36.61l1.291,2.581   c-0.352,0.691-0.652,1.419-0.896,2.174L1,42.279v7.441l2.743,0.914c0.244,0.755,0.544,1.482,0.896,2.174L3.348,55.39l5.262,5.262   l2.581-1.29c0.691,0.352,1.419,0.651,2.174,0.896L14.279,63H18h3.721H61V49c1.103,0,2-0.897,2-2v-2C63,43.897,62.103,43,61,43z    M59,43h-3v-4h-2v4h-5.277l5.474-9.58C57.107,35.612,59,39.085,59,43z M47,31c0.805,0,1.591,0.083,2.352,0.234L47,33.586   l-2.356-2.356C45.412,31.078,46.2,31,47,31z M49.862,36.976l-1.522-1.902l3.183-3.183c0.336,0.137,0.663,0.291,0.983,0.458   L49.862,36.976z M45.66,35.074l-1.522,1.902l-2.649-4.636c0.321-0.166,0.647-0.321,0.981-0.457L45.66,35.074z M47,36.601   l1.794,2.243L47,41.985l-1.794-3.141L47,36.601z M41,23c0-3.309,2.691-6,6-6s6,2.691,6,6s-2.691,6-6,6S41,26.309,41,23z    M38.514,34.515c0.403-0.403,0.838-0.762,1.286-1.1L45.277,43H40v-4h-2v4h-3C35,39.795,36.248,36.781,38.514,34.515z M30,29v4.958   l-2.61-2.611L27,31.543V25h-2v7.543l-0.191,0.096c-0.691-0.352-1.419-0.651-2.174-0.896L21.721,29h-1.998l5.474-9.58   C28.107,21.612,30,25.085,30,29z M12.494,18.349c0.957-0.497,1.984-0.875,3.069-1.1l-0.874,4.942L12.494,18.349z M17.636,17.018   C17.758,17.015,17.877,17,18,17s0.242,0.015,0.364,0.018l1.395,7.887L18,27.985l-1.759-3.079L17.636,17.018z M21.31,22.191   l-0.874-4.942c1.085,0.225,2.112,0.603,3.069,1.1L21.31,22.191z M12,9c0-3.309,2.691-6,6-6s6,2.691,6,6s-2.691,6-6,6   S12,12.309,12,9z M6,29c0-3.915,1.893-7.388,4.803-9.58L16.277,29h-1.998l-0.915,2.743c-0.755,0.244-1.482,0.544-2.174,0.896   L11,32.543V25H9v6.543l-0.39-0.195L6,33.958V29z M18,61h-2.279l-0.789-2.365l-0.507-0.146c-0.968-0.276-1.888-0.655-2.734-1.127   l-0.461-0.257l-2.226,1.112l-3.223-3.223l1.112-2.226l-0.257-0.461c-0.471-0.847-0.851-1.767-1.127-2.733l-0.145-0.508L3,48.279   v-4.559l2.365-0.788l0.145-0.508c0.276-0.967,0.656-1.887,1.127-2.733l0.257-0.461l-1.112-2.226l3.223-3.224l2.225,1.113   l0.461-0.257c0.846-0.472,1.766-0.851,2.734-1.127l0.507-0.146L15.721,31h4.559l0.789,2.365l0.507,0.146   c0.968,0.276,1.888,0.655,2.734,1.127l0.461,0.257l2.225-1.113l3.223,3.224l-1.112,2.226l0.257,0.461   c0.471,0.847,0.851,1.767,1.127,2.733l0.145,0.508L33,43.721V44v4.279l-2.365,0.788l-0.145,0.508   c-0.276,0.967-0.656,1.887-1.127,2.733l-0.257,0.461l1.112,2.226l-3.223,3.223l-2.226-1.112l-0.461,0.257   c-0.846,0.472-1.766,0.851-2.734,1.127l-0.507,0.146L20.279,61H18z M59,61H22.388l0.248-0.743c0.755-0.244,1.483-0.544,2.174-0.896   l2.581,1.29l5.262-5.262l-1.291-2.581c0.352-0.691,0.652-1.419,0.896-2.174L35,49.721V49h24V61z M61,47H35v-2h26V47z" style=""/>
    <rect x="55" y="57" width="2" height="2" style=""/>
    <rect x="51" y="57" width="2" height="2" style=""/>
    <rect x="47" y="57" width="2" height="2" style=""/>
  </g>
</svg>